<svg xmlns="http://www.w3.org/2000/svg" viewBox="0 0 100 100" width="100%" height="100%">
  <defs>
    <linearGradient id="zenoaBg" x1="0%" y1="0%" x2="100%" y2="100%">
      <stop offset="0%" stop-color="#0b0f19" />
      <stop offset="50%" stop-color="#1e1b4b" />
      <stop offset="100%" stop-color="#090d16" />
    </linearGradient>
    <linearGradient id="zenoaOrigami1" x1="0%" y1="0%" x2="100%" y2="100%">
      <stop offset="0%" stop-color="#6366f1" />
      <stop offset="100%" stop-color="#4f46e5" />
    </linearGradient>
    <linearGradient id="zenoaOrigami2" x1="0%" y1="0%" x2="100%" y2="100%">
      <stop offset="0%" stop-color="#818cf8" />
      <stop offset="100%" stop-color="#6366f1" />
    </linearGradient>
    <linearGradient id="zenoaOrigami3" x1="0%" y1="0%" x2="100%" y2="100%">
      <stop offset="0%" stop-color="#4338ca" />
      <stop offset="100%" stop-color="#312e81" />
    </linearGradient>
    <linearGradient id="zenoaOrigami4" x1="0%" y1="0%" x2="100%" y2="100%">
      <stop offset="0%" stop-color="#a5b4fc" />
      <stop offset="100%" stop-color="#818cf8" />
    </linearGradient>
    <linearGradient id="zenoaOrigamiDark" x1="0%" y1="0%" x2="100%" y2="100%">
      <stop offset="0%" stop-color="#3730a3" />
      <stop offset="100%" stop-color="#1e1b4b" />
    </linearGradient>
  </defs>
  <rect width="100" height="100" rx="24" fill="url(#zenoaBg)" />
  <g transform="translate(6, 6) scale(0.88)">
    <polygon points="46,48 56,12 34,36" fill="url(#zenoaOrigami3)" />
    <polygon points="32,62 46,48 42,78" fill="url(#zenoaOrigami3)" opacity="0.75" />
    <polygon points="42,78 14,86 32,62" fill="url(#zenoaOrigamiDark)" opacity="0.5" />
    <polygon points="46,48 66,54 42,78" fill="url(#zenoaOrigami1)" />
    <polygon points="46,48 90,18 66,54" fill="url(#zenoaOrigami2)" />
    <polygon points="66,54 90,18 82,42" fill="url(#zenoaOrigami4)" opacity="0.85" />
    <polygon points="46,48 72,36 66,54" fill="url(#zenoaOrigami1)" />
    <polygon points="72,36 91,32 79,44" fill="url(#zenoaOrigami4)" />
    <polygon points="91,32 97,35 87,41" fill="#c7d2fe" />
  </g>
</svg>
